# xmcd
#
# Track frame offsets:
#	150
#	13823
#	26968
#	37927
#	49669
#	62365
#	73903
#	86172
#	98422
#	111502
#	124220
#	137584
#	149918
#	165019
#	177745
#	190288
#	203612
#	217588
#	229119
#	240803
#	252501
#	263859
#	277442
# Disc length: 3865 seconds
# Revision: 2
# Processed by: cddbd v1.5.1PL0 Copyright (c) Steve Scherf et al.
#
# Submitted via: libkcddb 0.10
#
DISCID=530f1717
DTITLE=Various Artist - Bill Wyman's Blues Odyssey [CD2]
DYEAR=1900
DGENRE=Unknown
TTITLE0=Robert Johnson - Terraplane Blues
TTITLE1=Walter "Cowboy" Washington - Ice Pick Mama
TTITLE2=Black Boy Shine - Gamblin' Jinx Blues
TTITLE3=Pettie Wheatstraw - Pettie Wheatstraw Stomp
TTITLE4=Bill "Big" Broonzy - Good Boy
TTITLE5=Georgia White - Alley Boogie
TTITLE6=Blind Boy Fuller - Meat Shakin' Woman
TTITLE7=Cow Cow Davenport - Raliroad Blues
TTITLE8=John "Sleepy" Estes - Special Agent (Railroad Police Blues)
TTITLE9=Joe Turner - Roll 'Em Pete
TTITLE10=Lonnie Johnson - Jersey Belle Blues
TTITLE11=Tommy McClennan - Brown Skin Girl
TTITLE12=Memphis Slim - Beer Drinking Woman
TTITLE13=Memphis Minnie - Me and My Chauffeur Blues
TTITLE14=Joe "Big" Williams - Baby, Please Don't Go
TTITLE15=Pete Johnson - Dive Bomber
TTITLE16=Brownie McGhee, Sonny Terry - Carolina Blues
TTITLE17=Big Maceo - Kid Man Blues
TTITLE18=John Lee Hooker - Boogie Chillen'
TTITLE19=Muddy Waters - You're Gonna Miss Me (When I'm Dead and Gone)
TTITLE20=Lil' Son Jackson - Rockin' and Rollin'
TTITLE21=B.B. King - 3 O'Clock Blues
TTITLE22=Elmore James - Dust My Broom
EXTD=
EXTT0=
EXTT1=
EXTT2=
EXTT3=
EXTT4=
EXTT5=
EXTT6=
EXTT7=
EXTT8=
EXTT9=
EXTT10=
EXTT11=
EXTT12=
EXTT13=
EXTT14=
EXTT15=
EXTT16=
EXTT17=
EXTT18=
EXTT19=
EXTT20=
EXTT21=
EXTT22=
PLAYORDER=
